<svg width="85" height="26" viewBox="0 0 85 26" fill="none" xmlns="http://www.w3.org/2000/svg">
<path d="M63.46 3.33838H72.4021V12.527H81.3076C81.42 12.5636 81.4567 12.6664 81.4176 12.8356L81.3443 12.9041V14.0013L81.271 14.0699L81.1977 14.9613L80.6113 16.8813C80.1373 17.9007 79.4899 18.7579 78.6689 19.4527C77.9848 20.047 77.1786 20.527 76.2502 20.8928L73.7581 21.5785L72.4021 21.7156V12.527H63.46V3.33838Z" fill="#0C4DA2"/>
<path d="M72.2725 0.5H83.9999V12.5001H81.2513L81.2146 12.4658V3.31144H72.2725V0.5Z" fill="#F5B554" stroke="#F5B554"/>
<path d="M60.6187 12.5002H63.294L63.3306 12.5345V13.2202L63.4039 13.2888V13.9745L63.6971 15.5517L64.2835 17.1974C64.8161 18.322 65.5613 19.2477 66.519 19.9746C67.2715 20.5506 68.1755 20.9849 69.231 21.2774L70.477 21.5517L72.3461 21.7231L72.2728 21.7917V24.5003L70.6236 24.4317L70.5503 24.3632L69.744 24.2946L68.2048 23.9517L67.1787 23.6089C65.6737 23.0283 64.4398 22.194 63.4772 21.106C61.6301 19.0488 60.6773 16.1803 60.6187 12.5002Z" fill="#F5B554" stroke="#F5B554"/>
<path d="M23.6324 0.564233C21.911 0.827672 20.8549 1.76039 20.3954 3.41934C20.3406 3.64005 20.2788 4.25949 20.2583 4.91453L20.2171 6.03948H19.4079H18.5918V7.71267V9.38586H19.4147H20.2377V14.8682V20.3506H22.1922H24.1467V14.8682V9.38586H25.724H27.3013V7.74827V6.11068L25.7103 6.09644L24.1124 6.07508L24.1193 5.51972C24.1398 4.42325 24.6062 3.94621 25.6486 3.96045C26.1286 3.96757 26.8419 4.08861 27.1847 4.22389C27.2945 4.27373 27.3013 4.17405 27.2876 2.57918L27.267 0.884631L26.8007 0.756472C25.8749 0.514394 24.5307 0.428954 23.6324 0.564233Z" fill="#0C4DA2"/>
<path d="M0.0274316 7.58446C0.0480053 12.7037 0.068579 13.7859 0.157732 14.2701C0.672074 17.054 1.88592 18.834 3.94329 19.8165C6.00066 20.8062 9.11415 20.8988 11.3635 20.0444C13.7844 19.1188 15.3068 17.0184 15.7389 13.9924C15.8349 13.3659 15.8486 12.3121 15.8486 7.36374V1.48266H13.8598H11.8779L11.8505 7.51326C11.8299 14.2203 11.8573 13.7931 11.3498 14.8539C10.9041 15.7938 10.0194 16.4915 9.00443 16.7122C8.46265 16.8262 7.26252 16.8119 6.76875 16.6766C5.52061 16.342 4.59479 15.3594 4.23818 13.9782C4.01873 13.1523 3.98444 12.2053 3.98444 6.83686V1.48266H1.98879H0L0.0274316 7.58446Z" fill="#0C4DA2"/>
<path d="M50.2757 5.69759C49.0756 5.81863 47.9509 6.23871 46.929 6.94358C42.876 9.74173 42.7252 16.1568 46.641 19.1899C47.896 20.1653 49.3567 20.6353 51.1192 20.6353C53.2932 20.6353 54.9597 19.9233 56.393 18.3853L56.7221 18.0365L55.6043 16.883C54.9939 16.2422 54.4727 15.7082 54.4453 15.6798C54.4179 15.6513 54.2739 15.7438 54.1298 15.8791C52.7651 17.1607 51.0987 17.4954 49.6653 16.7691C48.815 16.3419 48.1772 15.5231 47.8617 14.4765C47.6628 13.8143 47.6491 12.547 47.8343 11.9133C48.0332 11.2227 48.4035 10.5676 48.8218 10.1476C49.5899 9.39285 50.2826 9.12941 51.3387 9.19349C52.2988 9.24333 53.0943 9.62069 53.8761 10.3896L54.2327 10.7385L55.1174 9.76309C55.6043 9.22197 56.1461 8.61677 56.3244 8.41741L56.6536 8.0543L56.1872 7.5915C54.699 6.11055 52.676 5.46263 50.2757 5.69759Z" fill="#0C4DA2"/>
<path d="M33.007 5.86851C31.8549 6.01802 30.6342 6.35978 29.7701 6.77274L29.4478 6.92938L29.9278 8.46017C30.1953 9.30032 30.4147 9.99808 30.4216 10.0123C30.4285 10.0194 30.6136 9.96248 30.8399 9.88416C32.0058 9.45696 33.1373 9.24336 34.1935 9.24336C36.0794 9.24336 37.1355 10.055 37.2315 11.5716C37.2521 11.8564 37.2384 12.0913 37.2109 12.0913C37.1835 12.0913 36.9503 12.0273 36.7034 11.9561C35.1536 11.479 33.1305 11.4221 31.656 11.8065C30.8262 12.0201 29.9278 12.5114 29.4409 13.0098C28.9746 13.4869 28.7208 13.8998 28.4808 14.5762C28.2614 15.2028 28.1996 16.4488 28.3505 17.1892C28.7826 19.2896 30.5588 20.5783 33.0276 20.5854C34.6255 20.5854 35.9011 20.1084 36.8886 19.1401C37.0463 18.9835 37.1904 18.8553 37.2109 18.8553C37.2315 18.8553 37.2452 19.1899 37.2452 19.6029V20.3505H39.1654H41.0856L41.0788 16.0572C41.0788 13.7005 41.0445 11.4505 41.0102 11.059C40.7702 8.40321 39.5495 6.7585 37.3138 6.06786C36.3331 5.76883 34.4266 5.67627 33.007 5.86851ZM35.9148 14.0849C36.148 14.1277 36.5526 14.2273 36.8063 14.3199L37.2795 14.4836V15.1956C37.2726 15.8151 37.2521 15.9432 37.0943 16.2565C36.5869 17.2676 35.4279 17.8443 34.0563 17.7659C32.7739 17.6947 32.0812 17.0753 32.0812 16.0073C32.0812 15.0319 32.5887 14.4124 33.6311 14.1205C34.0494 14.0066 35.3181 13.9853 35.9148 14.0849Z" fill="#0C4DA2"/>
</svg>
