<svg width="112" height="129" viewBox="0 0 112 129" fill="none" xmlns="http://www.w3.org/2000/svg">
<path d="M13.9961 15.5195H56.4481V64.142H98.726C99.2596 64.3355 99.4336 64.8798 99.248 65.7749L98.9 66.1377V71.9434L98.5521 72.3062L98.2041 77.0233L95.4204 87.1833C93.1702 92.5777 90.0965 97.1134 86.1992 100.79C82.9515 103.935 79.1239 106.475 74.7163 108.41L62.8854 112.039L56.4481 112.765V64.142H13.9961V15.5195Z" fill="#F9F9F9"/>
<path d="M56.4481 64.142V15.5195H13.9961V64.142H56.4481ZM56.4481 64.142H98.726C99.2596 64.3355 99.4336 64.8798 99.248 65.7749L98.9 66.1377V71.9434L98.5521 72.3062L98.2041 77.0233L95.4204 87.1833C93.1702 92.5777 90.0965 97.1134 86.1992 100.79C82.9515 103.935 79.1239 106.475 74.7163 108.41L62.8854 112.039L56.4481 112.765V64.142Z" stroke="#0A56AB"/>
<path d="M55.8325 0.5H111.507V63.9995H98.4585L98.2845 63.8181V15.377H55.8325V0.5Z" fill="#F5B554" stroke="#F5B554"/>
<path d="M0.507324 64.0004H13.2081L13.3821 64.1819V67.8104L13.7301 68.1733V71.8018L15.1219 80.1474L17.9057 88.856C20.4342 94.8068 23.9719 99.7053 28.5187 103.552C32.0911 106.6 36.3827 108.898 41.3934 110.446L47.3089 111.897L56.182 112.804L55.8341 113.167V127.5L48.0048 127.137L47.6568 126.774L43.8292 126.411L36.5219 124.597L31.6504 122.783C24.5054 119.711 18.648 115.296 14.078 109.539C5.30927 98.653 0.785698 83.4736 0.507324 64.0004Z" fill="#F5B554" stroke="#F5B554"/>
</svg>
